<?xml version="1.0" encoding="UTF-8"?>
<svg id="Camada_2" xmlns="http://www.w3.org/2000/svg" version="1.1" viewBox="0 0 500 453.3">
  <!-- Generator: Adobe Illustrator 30.3.0, SVG Export Plug-In . SVG Version: 2.1.3 Build 182)  -->
  <defs>
    <style>
      .st0 {
        fill: #f74b2a;
      }
    </style>
  </defs>
  <g id="Camada_1-2">
    <path class="st0" d="M162.3,453.3l-28.2-.6c-4.1,0-7.2-3.8-6.7-7.9l15.1-105.4c.7-4.6-3.4-8.6-8-7.8l-109.8,19.9c-.9.2-1.7.1-2.6,0l-16.6-3.4c-5.3-1.1-7.3-7.5-3.7-11.4l97.1-104.4c2.6-2.8,2.4-7.1-.3-9.6L23.2,150.3c-.3-.3-.6-.6-.9-1L3.6,122.7c-3.1-4.4-.2-10.4,5.1-10.8l58.4-4.3c.8,0,1.6,0,2.3.2l102.2,27.4c4.7,1.3,9.2-2.7,8.6-7.6l-12-91.4c-.2-1.2,0-2.5.5-3.6l12.1-28.4c1.7-4,6.6-5.4,10.2-3l31.9,21.9c.8.5,1.4,1.2,1.9,1.9l54.3,83.4c2.3,3.5,7.2,4.2,10.3,1.4l56.5-50c.6-.5,1.3-.9,2-1.2l48.1-19.3c2.9-1.2,6.2-.2,8,2.2l10.2,13.4c1.3,1.7,1.7,4,1.1,6l-32.2,112.3c-1.1,3.9,1.3,7.9,5.3,8.6l106,21.1c4,.8,6.4,4.8,5.3,8.6l-4.2,14.6c-.5,1.8-1.7,3.2-3.3,4.1l-88,48.8c-2.6,1.4-4,4.4-3.4,7.3l17.7,95.1c.1.7.1,1.5,0,2.2l-3.9,27.9c-.5,3.8-4,6.4-7.8,5.9l-27.4-3.8c-1.1-.1-2.1-.5-3-1.2l-75.9-52.4c-2.4-1.7-5.6-1.6-8,0l-126.4,91.7c-1.2.9-2.7,1.3-4.2,1.3h0Z"/>
  </g>
</svg>