<?xml version="1.0" encoding="UTF-8"?>
<svg id="Camada_2" data-name="Camada 2" xmlns="http://www.w3.org/2000/svg" viewBox="0 0 987 274.25">
  <g id="Camada_1-2" data-name="Camada 1">
    <path d="M735,4v91.93c0,1.88-2.34,2.72-3.54,1.27-10.5-12.73-29.66-23.19-58.46-23.19-32,0-86,19-86,100s54,100,86,100c28.81,0,47.96-10.47,58.46-23.19,1.19-1.45,3.54-.61,3.54,1.27v13.93c0,2.21,1.79,4,4,4h46c2.21,0,4-1.79,4-4V4c0-2.21-1.79-4-4-4h-46c-2.21,0-4,1.79-4,4ZM689,232c-27,0-52-11-52-58s25-58,52-58,46,16,46,58-18,58-46,58ZM152,228.25v38c0,2.21-1.79,4-4,4h-41c-45,0-65-21-65-66v-77c0-1.66-1.34-3-3-3H4c-2.21,0-4-1.79-4-4v-38c0-2.21,1.79-4,4-4h34.84c1.79,0,3.3-1.36,3.48-3.14l5.26-50.82c.24-2.29,2.17-4.04,4.48-4.04h39.94c2.21,0,4,1.79,4,4v51c0,1.66,1.34,3,3,3h47c2.21,0,4,1.79,4,4v38c0,2.21-1.79,4-4,4h-47c-1.66,0-3,1.34-3,3v77c0,11.05,8.95,20,20,20h32c2.21,0,4,1.79,4,4ZM570,159.25v107c0,2.21-1.79,4-4,4h-46c-2.21,0-4-1.79-4-4v-92c0-45.99-14-58-41-58s-43,16.51-43,58v92c0,2.21-1.79,4-4,4h-46c-2.21,0-4-1.79-4-4V82.23c0-2.2,1.78-3.99,3.98-4l44-.21c2.22-.01,4.02,1.78,4.02,4v15.91c0,1.9,2.39,2.72,3.58,1.22,12.96-16.37,31.01-24.9,60.42-24.9,46.39,0,76,23.71,76,85ZM261,74.25c-61.56,0-94,28.24-94,100s32.69,100,94,100,94-28.24,94-100-32.44-100-94-100ZM261,232.25c-30.24,0-44-16.21-44-58s13.76-58,44-58,44,16.17,44,58-13.76,58-44,58ZM899,74c-60.56,0-80.46,25.87-86.35,55.41-.37,1.85,1.06,3.59,2.95,3.59h43.29c1.76,0,3.34-1.03,4.08-2.62,4.01-8.63,15.95-16.38,35.03-16.38,29.54,0,36.38,14.52,36.96,34.92.05,1.69-1.32,3.08-3,3.08h-55.96c-44.66,0-70,31-70,59,0,49,35,63,64,63s49.26-10.67,59.37-25.3c1.11-1.61,3.63-.81,3.63,1.14v16.16c0,2.21,1.79,4,4,4h46c2.21,0,4-1.79,4-4v-114c0-55-21-78-88-78ZM888,232c-24.2,0-36-6.88-36-21s15.25-21,40-21h38.3c1.88,0,3.31,1.71,2.95,3.55-5.42,27.43-22.95,38.45-45.25,38.45Z"/>
  </g>
</svg>